<svg width="173" height="60" viewBox="0 0 173 60" fill="none" xmlns="http://www.w3.org/2000/svg">
<path d="M10.6272 30.5231C12.6867 30.5231 14.3549 31.1487 15.6318 32.4C16.9087 33.6308 17.5472 35.4154 17.5472 37.7538V47.6923H14.7668V38.1538C14.7668 36.4718 14.3446 35.1898 13.5002 34.3077C12.6558 33.4051 11.5024 32.9538 10.0402 32.9538C8.55736 32.9538 7.37313 33.4154 6.48753 34.3385C5.62253 35.2615 5.19003 36.6051 5.19003 38.3692V47.6923H2.37878V30.8308H5.19003V33.2308C5.74611 32.3692 6.49783 31.7025 7.44521 31.2308C8.41316 30.759 9.47387 30.5231 10.6272 30.5231ZM37.1533 30.8308V47.6923H34.342V45.2C33.8066 46.0615 33.0548 46.7385 32.0868 47.2308C31.1395 47.7025 30.0891 47.9385 28.9358 47.9385C27.6177 47.9385 26.4334 47.6718 25.3831 47.1385C24.3327 46.5846 23.4986 45.7641 22.8808 44.6769C22.2835 43.5898 21.9849 42.2667 21.9849 40.7077V30.8308H24.7652V40.3385C24.7652 42 25.1874 43.2821 26.0318 44.1846C26.8763 45.0667 28.0296 45.5077 29.4918 45.5077C30.9953 45.5077 32.1795 45.0461 33.0445 44.1231C33.9095 43.2 34.342 41.8564 34.342 40.0923V30.8308H37.1533ZM45.329 33.1385V43.0769C45.329 43.8975 45.5041 44.4821 45.8542 44.8308C46.2043 45.159 46.8119 45.3231 47.6769 45.3231H49.7467V47.6923H47.2135C45.6482 47.6923 44.4743 47.3333 43.6917 46.6154C42.9091 45.8975 42.5178 44.7179 42.5178 43.0769V33.1385H40.3244V30.8308H42.5178V26.5846H45.329V30.8308H49.7467V33.1385H45.329ZM55.9641 33.5692C56.4584 32.6051 57.1587 31.8564 58.0649 31.3231C58.9916 30.7898 60.1141 30.5231 61.4322 30.5231V33.4154H60.6907C57.5397 33.4154 55.9641 35.1179 55.9641 38.5231V47.6923H53.1529V30.8308H55.9641V33.5692ZM66.1294 28.0923C65.5938 28.0923 65.1408 27.9077 64.7701 27.5385C64.3994 27.1692 64.214 26.7179 64.214 26.1846C64.214 25.6513 64.3994 25.2 64.7701 24.8308C65.1408 24.4615 65.5938 24.2769 66.1294 24.2769C66.6442 24.2769 67.0767 24.4615 67.4269 24.8308C67.7976 25.2 67.9829 25.6513 67.9829 26.1846C67.9829 26.7179 67.7976 27.1692 67.4269 27.5385C67.0767 27.9077 66.6442 28.0923 66.1294 28.0923ZM67.4886 30.8308V47.6923H64.6774V30.8308H67.4886ZM73.1758 47.8769C72.6403 47.8769 72.1872 47.6923 71.8165 47.3231C71.4458 46.9538 71.2604 46.5025 71.2604 45.9692C71.2604 45.4359 71.4458 44.9846 71.8165 44.6154C72.1872 44.2461 72.6403 44.0615 73.1758 44.0615C73.6907 44.0615 74.1232 44.2461 74.4733 44.6154C74.844 44.9846 75.0294 45.4359 75.0294 45.9692C75.0294 46.5025 74.844 46.9538 74.4733 47.3231C74.1232 47.6923 73.6907 47.8769 73.1758 47.8769ZM77.7156 39.2C77.7156 37.4769 78.0663 35.9692 78.766 34.6769C79.4665 33.3641 80.4242 32.3487 81.639 31.6308C82.8748 30.9128 84.2549 30.5538 85.7787 30.5538C87.097 30.5538 88.3227 30.8615 89.4549 31.4769C90.5879 32.0718 91.4529 32.8615 92.0499 33.8461V24.9231H94.8921V47.6923H92.0499V44.5231C91.4939 45.5282 90.6706 46.359 89.5785 47.0154C88.4872 47.6513 87.2106 47.9692 85.7478 47.9692C84.2449 47.9692 82.8748 47.6 81.639 46.8615C80.4242 46.1231 79.4665 45.0871 78.766 43.7538C78.0663 42.4205 77.7156 40.9025 77.7156 39.2ZM92.0499 39.2308C92.0499 37.959 91.7927 36.8513 91.2776 35.9077C90.7632 34.9641 90.0628 34.2461 89.1769 33.7538C88.3119 33.241 87.3542 32.9846 86.3039 32.9846C85.2535 32.9846 84.2958 33.2308 83.4308 33.7231C82.5658 34.2154 81.8761 34.9333 81.361 35.8769C80.8466 36.8205 80.5887 37.9282 80.5887 39.2C80.5887 40.4923 80.8466 41.6205 81.361 42.5846C81.8761 43.5282 82.5658 44.2564 83.4308 44.7692C84.2958 45.2615 85.2535 45.5077 86.3039 45.5077C87.3542 45.5077 88.3119 45.2615 89.1769 44.7692C90.0628 44.2564 90.7632 43.5282 91.2776 42.5846C91.7927 41.6205 92.0499 40.5025 92.0499 39.2308ZM98.593 39.2C98.593 37.4769 98.9429 35.9692 99.6434 34.6769C100.343 33.3641 101.301 32.3487 102.516 31.6308C103.752 30.9128 105.121 30.5538 106.625 30.5538C108.108 30.5538 109.395 30.8718 110.487 31.5077C111.578 32.1436 112.391 32.9436 112.927 33.9077V30.8308H115.769V47.6923H112.927V44.5538C112.371 45.5385 111.537 46.359 110.425 47.0154C109.333 47.6513 108.056 47.9692 106.594 47.9692C105.091 47.9692 103.731 47.6 102.516 46.8615C101.301 46.1231 100.343 45.0871 99.6434 43.7538C98.9429 42.4205 98.593 40.9025 98.593 39.2ZM112.927 39.2308C112.927 37.959 112.669 36.8513 112.155 35.9077C111.64 34.9641 110.939 34.2461 110.054 33.7538C109.189 33.241 108.232 32.9846 107.181 32.9846C106.131 32.9846 105.173 33.2308 104.308 33.7231C103.443 34.2154 102.753 34.9333 102.238 35.8769C101.723 36.8205 101.466 37.9282 101.466 39.2C101.466 40.4923 101.723 41.6205 102.238 42.5846C102.753 43.5282 103.443 44.2564 104.308 44.7692C105.173 45.2615 106.131 45.5077 107.181 45.5077C108.232 45.5077 109.189 45.2615 110.054 44.7692C110.939 44.2564 111.64 43.5282 112.155 42.5846C112.669 41.6205 112.927 40.5025 112.927 39.2308ZM126.513 47.9692C125.216 47.9692 124.052 47.7538 123.022 47.3231C121.992 46.8718 121.179 46.2564 120.582 45.4769C119.984 44.6769 119.655 43.7641 119.593 42.7385H122.497C122.579 43.5795 122.971 44.2667 123.671 44.8C124.392 45.3333 125.328 45.6 126.482 45.6C127.553 45.6 128.398 45.3641 129.016 44.8923C129.633 44.4205 129.942 43.8256 129.942 43.1077C129.942 42.3692 129.613 41.8256 128.954 41.4769C128.294 41.1077 127.275 40.7487 125.895 40.4C124.639 40.0718 123.609 39.7436 122.806 39.4154C122.023 39.0667 121.343 38.5641 120.767 37.9077C120.211 37.2308 119.933 36.3487 119.933 35.2615C119.933 34.4 120.19 33.6102 120.705 32.8923C121.22 32.1744 121.951 31.6102 122.899 31.2C123.846 30.7692 124.927 30.5538 126.143 30.5538C128.016 30.5538 129.53 31.0256 130.684 31.9692C131.837 32.9128 132.455 34.2051 132.537 35.8461H129.726C129.664 34.9641 129.304 34.2564 128.645 33.7231C128.006 33.1898 127.141 32.9231 126.05 32.9231C125.04 32.9231 124.237 33.1385 123.64 33.5692C123.042 34 122.744 34.5641 122.744 35.2615C122.744 35.8154 122.919 36.2769 123.269 36.6461C123.64 36.9948 124.093 37.2821 124.629 37.5077C125.185 37.7128 125.946 37.9487 126.915 38.2154C128.13 38.5436 129.118 38.8718 129.881 39.2C130.642 39.5077 131.291 39.9795 131.827 40.6154C132.383 41.2513 132.671 42.0821 132.692 43.1077C132.692 44.0308 132.434 44.8615 131.919 45.6C131.404 46.3385 130.673 46.9231 129.726 47.3538C128.799 47.7641 127.728 47.9692 126.513 47.9692ZM145.063 30.5231C146.34 30.5231 147.493 30.8 148.523 31.3538C149.553 31.8871 150.356 32.6975 150.932 33.7846C151.53 34.8718 151.828 36.1948 151.828 37.7538V47.6923H149.048V38.1538C149.048 36.4718 148.626 35.1898 147.781 34.3077C146.937 33.4051 145.784 32.9538 144.321 32.9538C142.839 32.9538 141.655 33.4154 140.769 34.3385C139.904 35.2615 139.471 36.6051 139.471 38.3692V47.6923H136.66V24.9231H139.471V33.2308C140.027 32.3692 140.79 31.7025 141.757 31.2308C142.746 30.759 143.848 30.5231 145.063 30.5231Z" fill="#0D2601"/>
<path d="M170.483 6.77607C170.472 6.58788 170.392 6.41028 170.258 6.27699C170.124 6.14369 169.946 6.06398 169.757 6.053C162.408 5.62319 156.52 7.82703 154.01 11.9616C153.141 13.376 152.711 15.0158 152.778 16.6731C152.833 18.2039 153.281 19.7501 154.11 21.2741L152.226 23.1491C152.081 23.2935 152 23.4892 152 23.6934C152 23.8975 152.081 24.0933 152.226 24.2376C152.371 24.3819 152.568 24.4631 152.773 24.4631C152.978 24.4631 153.174 24.3819 153.319 24.2376L155.202 22.3616C156.731 23.1857 158.284 23.6318 159.821 23.6866C159.928 23.6905 160.034 23.6924 160.142 23.6924C161.697 23.6965 163.224 23.2698 164.551 22.4597C168.702 19.9597 170.916 14.0972 170.483 6.77607ZM163.754 21.1443C161.558 22.4693 158.958 22.4905 156.349 21.2184L164.905 12.6972C164.977 12.6258 165.034 12.5409 165.072 12.4475C165.111 12.3542 165.131 12.2541 165.131 12.153C165.131 12.0519 165.111 11.9518 165.072 11.8585C165.034 11.7651 164.977 11.6802 164.905 11.6088C164.833 11.5373 164.748 11.4806 164.654 11.4419C164.56 11.4032 164.46 11.3833 164.359 11.3833C164.257 11.3833 164.156 11.4032 164.063 11.4419C163.969 11.4806 163.884 11.5373 163.812 11.6088L155.257 20.1347C153.983 17.5385 154.002 14.9424 155.331 12.7588C157.463 9.252 162.533 7.33184 168.973 7.56069C169.204 13.9703 167.275 19.0203 163.754 21.1443Z" fill="#417310"/>
</svg>
