<svg width="1440" height="96" viewBox="0 0 1440 96" fill="none" xmlns="http://www.w3.org/2000/svg">
<path d="M-337.133 96C-273.267 96 -145.533 96 -17.8 74.7C109.933 53 237.667 11 365.4 5.3C493.133 2.86102e-06 620.867 32 748.6 48C876.333 64 1004.07 64 1131.8 53.3C1259.53 43 1387.27 21 1451.13 10.7L1515 0V96H1451.13C1387.27 96 1259.53 96 1131.8 96C1004.07 96 876.333 96 748.6 96C620.867 96 493.133 96 365.4 96C237.667 96 109.933 96 -17.8 96C-145.533 96 -273.267 96 -337.133 96Z" fill="#A9BF7A" fill-opacity="0.5"/>
</svg>
